<mxfile host="Electron" agent="Mozilla/5.0 (X11; Linux x86_64) AppleWebKit/537.36 (KHTML, like Gecko) draw.io/28.1.2 Chrome/138.0.7204.243 Electron/37.4.0 Safari/537.36" version="28.1.2">
  <diagram name="Page-1" id="oar3WA4TJ04RxiswNMK3">
    <mxGraphModel dx="1426" dy="840" grid="1" gridSize="10" guides="1" tooltips="1" connect="1" arrows="1" fold="1" page="1" pageScale="1" pageWidth="850" pageHeight="1100" math="0" shadow="0">
      <root>
        <mxCell id="0" />
        <mxCell id="1" parent="0" />
        <mxCell id="I2Hw5kMmHwBx__Cgq72a-17" value="" style="group" parent="1" vertex="1" connectable="0">
          <mxGeometry x="320" y="160" width="200" height="280" as="geometry" />
        </mxCell>
        <mxCell id="I2Hw5kMmHwBx__Cgq72a-1" value="user" style="rounded=0;whiteSpace=wrap;html=1;fillColor=none;" parent="I2Hw5kMmHwBx__Cgq72a-17" vertex="1">
          <mxGeometry width="200" height="40" as="geometry" />
        </mxCell>
        <mxCell id="I2Hw5kMmHwBx__Cgq72a-2" value="id" style="rounded=0;whiteSpace=wrap;html=1;fillColor=none;" parent="I2Hw5kMmHwBx__Cgq72a-17" vertex="1">
          <mxGeometry x="80" y="40" width="120" height="40" as="geometry" />
        </mxCell>
        <mxCell id="I2Hw5kMmHwBx__Cgq72a-3" value="username" style="rounded=0;whiteSpace=wrap;html=1;fillColor=none;" parent="I2Hw5kMmHwBx__Cgq72a-17" vertex="1">
          <mxGeometry x="80" y="80" width="120" height="40" as="geometry" />
        </mxCell>
        <mxCell id="I2Hw5kMmHwBx__Cgq72a-4" value="email" style="rounded=0;whiteSpace=wrap;html=1;fillColor=none;" parent="I2Hw5kMmHwBx__Cgq72a-17" vertex="1">
          <mxGeometry x="80" y="120" width="120" height="40" as="geometry" />
        </mxCell>
        <mxCell id="I2Hw5kMmHwBx__Cgq72a-7" value="password_digest" style="rounded=0;whiteSpace=wrap;html=1;fillColor=none;" parent="I2Hw5kMmHwBx__Cgq72a-17" vertex="1">
          <mxGeometry x="80" y="160" width="120" height="40" as="geometry" />
        </mxCell>
        <mxCell id="I2Hw5kMmHwBx__Cgq72a-8" value="created_at" style="rounded=0;whiteSpace=wrap;html=1;fillColor=none;" parent="I2Hw5kMmHwBx__Cgq72a-17" vertex="1">
          <mxGeometry x="80" y="200" width="120" height="40" as="geometry" />
        </mxCell>
        <mxCell id="I2Hw5kMmHwBx__Cgq72a-9" value="updated_at" style="rounded=0;whiteSpace=wrap;html=1;fillColor=none;" parent="I2Hw5kMmHwBx__Cgq72a-17" vertex="1">
          <mxGeometry x="80" y="240" width="120" height="40" as="geometry" />
        </mxCell>
        <mxCell id="I2Hw5kMmHwBx__Cgq72a-11" value="PK" style="rounded=0;whiteSpace=wrap;html=1;fillColor=none;" parent="I2Hw5kMmHwBx__Cgq72a-17" vertex="1">
          <mxGeometry y="40" width="80" height="40" as="geometry" />
        </mxCell>
        <mxCell id="I2Hw5kMmHwBx__Cgq72a-12" value="" style="rounded=0;whiteSpace=wrap;html=1;fillColor=none;" parent="I2Hw5kMmHwBx__Cgq72a-17" vertex="1">
          <mxGeometry y="80" width="80" height="40" as="geometry" />
        </mxCell>
        <mxCell id="I2Hw5kMmHwBx__Cgq72a-13" value="" style="rounded=0;whiteSpace=wrap;html=1;fillColor=none;" parent="I2Hw5kMmHwBx__Cgq72a-17" vertex="1">
          <mxGeometry y="120" width="80" height="40" as="geometry" />
        </mxCell>
        <mxCell id="I2Hw5kMmHwBx__Cgq72a-14" value="" style="rounded=0;whiteSpace=wrap;html=1;fillColor=none;" parent="I2Hw5kMmHwBx__Cgq72a-17" vertex="1">
          <mxGeometry y="160" width="80" height="40" as="geometry" />
        </mxCell>
        <mxCell id="I2Hw5kMmHwBx__Cgq72a-15" value="" style="rounded=0;whiteSpace=wrap;html=1;fillColor=none;" parent="I2Hw5kMmHwBx__Cgq72a-17" vertex="1">
          <mxGeometry y="240" width="80" height="40" as="geometry" />
        </mxCell>
        <mxCell id="I2Hw5kMmHwBx__Cgq72a-16" value="" style="rounded=0;whiteSpace=wrap;html=1;fillColor=none;" parent="I2Hw5kMmHwBx__Cgq72a-17" vertex="1">
          <mxGeometry y="200" width="80" height="40" as="geometry" />
        </mxCell>
        <mxCell id="I2Hw5kMmHwBx__Cgq72a-50" value="" style="group" parent="1" vertex="1" connectable="0">
          <mxGeometry y="160" width="200" height="240" as="geometry" />
        </mxCell>
        <mxCell id="I2Hw5kMmHwBx__Cgq72a-37" value="activity_streams" style="rounded=0;whiteSpace=wrap;html=1;fillColor=none;" parent="I2Hw5kMmHwBx__Cgq72a-50" vertex="1">
          <mxGeometry width="200" height="40" as="geometry" />
        </mxCell>
        <mxCell id="I2Hw5kMmHwBx__Cgq72a-38" value="id" style="rounded=0;whiteSpace=wrap;html=1;fillColor=none;" parent="I2Hw5kMmHwBx__Cgq72a-50" vertex="1">
          <mxGeometry x="80" y="40" width="120" height="40" as="geometry" />
        </mxCell>
        <mxCell id="I2Hw5kMmHwBx__Cgq72a-39" value="user_id" style="rounded=0;whiteSpace=wrap;html=1;fillColor=none;" parent="I2Hw5kMmHwBx__Cgq72a-50" vertex="1">
          <mxGeometry x="80" y="80" width="120" height="40" as="geometry" />
        </mxCell>
        <mxCell id="I2Hw5kMmHwBx__Cgq72a-40" value="action" style="rounded=0;whiteSpace=wrap;html=1;fillColor=none;" parent="I2Hw5kMmHwBx__Cgq72a-50" vertex="1">
          <mxGeometry x="80" y="120" width="120" height="40" as="geometry" />
        </mxCell>
        <mxCell id="I2Hw5kMmHwBx__Cgq72a-42" value="created_at" style="rounded=0;whiteSpace=wrap;html=1;fillColor=none;" parent="I2Hw5kMmHwBx__Cgq72a-50" vertex="1">
          <mxGeometry x="80" y="160" width="120" height="40" as="geometry" />
        </mxCell>
        <mxCell id="I2Hw5kMmHwBx__Cgq72a-43" value="updated_at" style="rounded=0;whiteSpace=wrap;html=1;fillColor=none;" parent="I2Hw5kMmHwBx__Cgq72a-50" vertex="1">
          <mxGeometry x="80" y="200" width="120" height="40" as="geometry" />
        </mxCell>
        <mxCell id="I2Hw5kMmHwBx__Cgq72a-44" value="PK" style="rounded=0;whiteSpace=wrap;html=1;fillColor=none;" parent="I2Hw5kMmHwBx__Cgq72a-50" vertex="1">
          <mxGeometry y="40" width="80" height="40" as="geometry" />
        </mxCell>
        <mxCell id="I2Hw5kMmHwBx__Cgq72a-45" value="FK" style="rounded=0;whiteSpace=wrap;html=1;fillColor=none;" parent="I2Hw5kMmHwBx__Cgq72a-50" vertex="1">
          <mxGeometry y="80" width="80" height="40" as="geometry" />
        </mxCell>
        <mxCell id="I2Hw5kMmHwBx__Cgq72a-46" value="" style="rounded=0;whiteSpace=wrap;html=1;fillColor=none;" parent="I2Hw5kMmHwBx__Cgq72a-50" vertex="1">
          <mxGeometry y="120" width="80" height="40" as="geometry" />
        </mxCell>
        <mxCell id="I2Hw5kMmHwBx__Cgq72a-48" value="" style="rounded=0;whiteSpace=wrap;html=1;fillColor=none;" parent="I2Hw5kMmHwBx__Cgq72a-50" vertex="1">
          <mxGeometry y="200" width="80" height="40" as="geometry" />
        </mxCell>
        <mxCell id="I2Hw5kMmHwBx__Cgq72a-49" value="" style="rounded=0;whiteSpace=wrap;html=1;fillColor=none;" parent="I2Hw5kMmHwBx__Cgq72a-50" vertex="1">
          <mxGeometry y="160" width="80" height="40" as="geometry" />
        </mxCell>
        <mxCell id="I2Hw5kMmHwBx__Cgq72a-63" value="" style="group" parent="1" vertex="1" connectable="0">
          <mxGeometry x="640" y="200" width="200" height="200" as="geometry" />
        </mxCell>
        <mxCell id="I2Hw5kMmHwBx__Cgq72a-52" value="leaderboard" style="rounded=0;whiteSpace=wrap;html=1;fillColor=none;container=0;" parent="I2Hw5kMmHwBx__Cgq72a-63" vertex="1">
          <mxGeometry width="200" height="40" as="geometry" />
        </mxCell>
        <mxCell id="I2Hw5kMmHwBx__Cgq72a-53" value="id" style="rounded=0;whiteSpace=wrap;html=1;fillColor=none;container=0;" parent="I2Hw5kMmHwBx__Cgq72a-63" vertex="1">
          <mxGeometry x="80" y="40" width="120" height="40" as="geometry" />
        </mxCell>
        <mxCell id="I2Hw5kMmHwBx__Cgq72a-54" value="user_id" style="rounded=0;whiteSpace=wrap;html=1;fillColor=none;container=0;" parent="I2Hw5kMmHwBx__Cgq72a-63" vertex="1">
          <mxGeometry x="80" y="80" width="120" height="40" as="geometry" />
        </mxCell>
        <mxCell id="I2Hw5kMmHwBx__Cgq72a-55" value="points" style="rounded=0;whiteSpace=wrap;html=1;fillColor=none;container=0;" parent="I2Hw5kMmHwBx__Cgq72a-63" vertex="1">
          <mxGeometry x="80" y="120" width="120" height="40" as="geometry" />
        </mxCell>
        <mxCell id="I2Hw5kMmHwBx__Cgq72a-56" value="badges" style="rounded=0;whiteSpace=wrap;html=1;fillColor=none;container=0;" parent="I2Hw5kMmHwBx__Cgq72a-63" vertex="1">
          <mxGeometry x="80" y="160" width="120" height="40" as="geometry" />
        </mxCell>
        <mxCell id="I2Hw5kMmHwBx__Cgq72a-58" value="PK" style="rounded=0;whiteSpace=wrap;html=1;fillColor=none;container=0;" parent="I2Hw5kMmHwBx__Cgq72a-63" vertex="1">
          <mxGeometry y="40" width="80" height="40" as="geometry" />
        </mxCell>
        <mxCell id="I2Hw5kMmHwBx__Cgq72a-59" value="FK" style="rounded=0;whiteSpace=wrap;html=1;fillColor=none;container=0;" parent="I2Hw5kMmHwBx__Cgq72a-63" vertex="1">
          <mxGeometry y="80" width="80" height="40" as="geometry" />
        </mxCell>
        <mxCell id="I2Hw5kMmHwBx__Cgq72a-60" value="" style="rounded=0;whiteSpace=wrap;html=1;fillColor=none;container=0;" parent="I2Hw5kMmHwBx__Cgq72a-63" vertex="1">
          <mxGeometry y="120" width="80" height="40" as="geometry" />
        </mxCell>
        <mxCell id="I2Hw5kMmHwBx__Cgq72a-62" value="" style="rounded=0;whiteSpace=wrap;html=1;fillColor=none;container=0;" parent="I2Hw5kMmHwBx__Cgq72a-63" vertex="1">
          <mxGeometry y="160" width="80" height="40" as="geometry" />
        </mxCell>
        <mxCell id="I2Hw5kMmHwBx__Cgq72a-80" value="" style="group" parent="1" vertex="1" connectable="0">
          <mxGeometry x="1040" y="200" width="200" height="280" as="geometry" />
        </mxCell>
        <mxCell id="I2Hw5kMmHwBx__Cgq72a-65" value="quests" style="rounded=0;whiteSpace=wrap;html=1;fillColor=none;container=0;" parent="I2Hw5kMmHwBx__Cgq72a-80" vertex="1">
          <mxGeometry width="200" height="40" as="geometry" />
        </mxCell>
        <mxCell id="I2Hw5kMmHwBx__Cgq72a-66" value="id" style="rounded=0;whiteSpace=wrap;html=1;fillColor=none;container=0;" parent="I2Hw5kMmHwBx__Cgq72a-80" vertex="1">
          <mxGeometry x="80" y="40" width="120" height="40" as="geometry" />
        </mxCell>
        <mxCell id="I2Hw5kMmHwBx__Cgq72a-67" value="title" style="rounded=0;whiteSpace=wrap;html=1;fillColor=none;container=0;" parent="I2Hw5kMmHwBx__Cgq72a-80" vertex="1">
          <mxGeometry x="80" y="80" width="120" height="40" as="geometry" />
        </mxCell>
        <mxCell id="I2Hw5kMmHwBx__Cgq72a-68" value="description" style="rounded=0;whiteSpace=wrap;html=1;fillColor=none;container=0;" parent="I2Hw5kMmHwBx__Cgq72a-80" vertex="1">
          <mxGeometry x="80" y="120" width="120" height="40" as="geometry" />
        </mxCell>
        <mxCell id="I2Hw5kMmHwBx__Cgq72a-69" value="points" style="rounded=0;whiteSpace=wrap;html=1;fillColor=none;container=0;" parent="I2Hw5kMmHwBx__Cgq72a-80" vertex="1">
          <mxGeometry x="80" y="160" width="120" height="40" as="geometry" />
        </mxCell>
        <mxCell id="I2Hw5kMmHwBx__Cgq72a-70" value="PK" style="rounded=0;whiteSpace=wrap;html=1;fillColor=none;container=0;" parent="I2Hw5kMmHwBx__Cgq72a-80" vertex="1">
          <mxGeometry y="40" width="80" height="40" as="geometry" />
        </mxCell>
        <mxCell id="I2Hw5kMmHwBx__Cgq72a-71" value="" style="rounded=0;whiteSpace=wrap;html=1;fillColor=none;container=0;" parent="I2Hw5kMmHwBx__Cgq72a-80" vertex="1">
          <mxGeometry y="80" width="80" height="40" as="geometry" />
        </mxCell>
        <mxCell id="I2Hw5kMmHwBx__Cgq72a-72" value="" style="rounded=0;whiteSpace=wrap;html=1;fillColor=none;container=0;" parent="I2Hw5kMmHwBx__Cgq72a-80" vertex="1">
          <mxGeometry y="120" width="80" height="40" as="geometry" />
        </mxCell>
        <mxCell id="I2Hw5kMmHwBx__Cgq72a-73" value="" style="rounded=0;whiteSpace=wrap;html=1;fillColor=none;container=0;" parent="I2Hw5kMmHwBx__Cgq72a-80" vertex="1">
          <mxGeometry y="160" width="80" height="40" as="geometry" />
        </mxCell>
        <mxCell id="I2Hw5kMmHwBx__Cgq72a-74" value="progress" style="rounded=0;whiteSpace=wrap;html=1;fillColor=none;container=0;" parent="I2Hw5kMmHwBx__Cgq72a-80" vertex="1">
          <mxGeometry x="80" y="200" width="120" height="40" as="geometry" />
        </mxCell>
        <mxCell id="I2Hw5kMmHwBx__Cgq72a-75" value="" style="rounded=0;whiteSpace=wrap;html=1;fillColor=none;container=0;" parent="I2Hw5kMmHwBx__Cgq72a-80" vertex="1">
          <mxGeometry y="200" width="80" height="40" as="geometry" />
        </mxCell>
        <mxCell id="I2Hw5kMmHwBx__Cgq72a-78" value="completed" style="rounded=0;whiteSpace=wrap;html=1;fillColor=none;container=0;" parent="I2Hw5kMmHwBx__Cgq72a-80" vertex="1">
          <mxGeometry x="80" y="240" width="120" height="40" as="geometry" />
        </mxCell>
        <mxCell id="I2Hw5kMmHwBx__Cgq72a-79" value="" style="rounded=0;whiteSpace=wrap;html=1;fillColor=none;container=0;" parent="I2Hw5kMmHwBx__Cgq72a-80" vertex="1">
          <mxGeometry y="240" width="80" height="40" as="geometry" />
        </mxCell>
        <mxCell id="I2Hw5kMmHwBx__Cgq72a-107" value="" style="group" parent="1" vertex="1" connectable="0">
          <mxGeometry x="1330" y="560" width="200" height="240" as="geometry" />
        </mxCell>
        <mxCell id="I2Hw5kMmHwBx__Cgq72a-82" value="agenda_items" style="rounded=0;whiteSpace=wrap;html=1;fillColor=none;container=0;" parent="I2Hw5kMmHwBx__Cgq72a-107" vertex="1">
          <mxGeometry width="200" height="40" as="geometry" />
        </mxCell>
        <mxCell id="I2Hw5kMmHwBx__Cgq72a-83" value="id" style="rounded=0;whiteSpace=wrap;html=1;fillColor=none;container=0;" parent="I2Hw5kMmHwBx__Cgq72a-107" vertex="1">
          <mxGeometry x="80" y="40" width="120" height="40" as="geometry" />
        </mxCell>
        <mxCell id="I2Hw5kMmHwBx__Cgq72a-84" value="type" style="rounded=0;whiteSpace=wrap;html=1;fillColor=none;container=0;" parent="I2Hw5kMmHwBx__Cgq72a-107" vertex="1">
          <mxGeometry x="80" y="80" width="120" height="40" as="geometry" />
        </mxCell>
        <mxCell id="I2Hw5kMmHwBx__Cgq72a-85" value="title" style="rounded=0;whiteSpace=wrap;html=1;fillColor=none;container=0;" parent="I2Hw5kMmHwBx__Cgq72a-107" vertex="1">
          <mxGeometry x="80" y="120" width="120" height="40" as="geometry" />
        </mxCell>
        <mxCell id="I2Hw5kMmHwBx__Cgq72a-86" value="category" style="rounded=0;whiteSpace=wrap;html=1;fillColor=none;container=0;" parent="I2Hw5kMmHwBx__Cgq72a-107" vertex="1">
          <mxGeometry x="80" y="160" width="120" height="40" as="geometry" />
        </mxCell>
        <mxCell id="I2Hw5kMmHwBx__Cgq72a-87" value="PK" style="rounded=0;whiteSpace=wrap;html=1;fillColor=none;container=0;" parent="I2Hw5kMmHwBx__Cgq72a-107" vertex="1">
          <mxGeometry y="40" width="80" height="40" as="geometry" />
        </mxCell>
        <mxCell id="I2Hw5kMmHwBx__Cgq72a-88" value="" style="rounded=0;whiteSpace=wrap;html=1;fillColor=none;container=0;" parent="I2Hw5kMmHwBx__Cgq72a-107" vertex="1">
          <mxGeometry y="80" width="80" height="40" as="geometry" />
        </mxCell>
        <mxCell id="I2Hw5kMmHwBx__Cgq72a-89" value="" style="rounded=0;whiteSpace=wrap;html=1;fillColor=none;container=0;" parent="I2Hw5kMmHwBx__Cgq72a-107" vertex="1">
          <mxGeometry y="120" width="80" height="40" as="geometry" />
        </mxCell>
        <mxCell id="I2Hw5kMmHwBx__Cgq72a-90" value="" style="rounded=0;whiteSpace=wrap;html=1;fillColor=none;container=0;" parent="I2Hw5kMmHwBx__Cgq72a-107" vertex="1">
          <mxGeometry y="160" width="80" height="40" as="geometry" />
        </mxCell>
        <mxCell id="I2Hw5kMmHwBx__Cgq72a-91" value="due_date" style="rounded=0;whiteSpace=wrap;html=1;fillColor=none;container=0;" parent="I2Hw5kMmHwBx__Cgq72a-107" vertex="1">
          <mxGeometry x="80" y="200" width="120" height="40" as="geometry" />
        </mxCell>
        <mxCell id="I2Hw5kMmHwBx__Cgq72a-92" value="" style="rounded=0;whiteSpace=wrap;html=1;fillColor=none;container=0;" parent="I2Hw5kMmHwBx__Cgq72a-107" vertex="1">
          <mxGeometry y="200" width="80" height="40" as="geometry" />
        </mxCell>
        <mxCell id="I2Hw5kMmHwBx__Cgq72a-120" value="" style="group" parent="1" vertex="1" connectable="0">
          <mxGeometry x="1040" y="560" width="200" height="200" as="geometry" />
        </mxCell>
        <mxCell id="I2Hw5kMmHwBx__Cgq72a-109" value="meetings" style="rounded=0;whiteSpace=wrap;html=1;fillColor=none;container=0;movable=1;resizable=1;rotatable=1;deletable=1;editable=1;locked=0;connectable=1;" parent="I2Hw5kMmHwBx__Cgq72a-120" vertex="1">
          <mxGeometry width="200" height="40" as="geometry" />
        </mxCell>
        <mxCell id="I2Hw5kMmHwBx__Cgq72a-110" value="id" style="rounded=0;whiteSpace=wrap;html=1;fillColor=none;container=0;movable=1;resizable=1;rotatable=1;deletable=1;editable=1;locked=0;connectable=1;" parent="I2Hw5kMmHwBx__Cgq72a-120" vertex="1">
          <mxGeometry x="80" y="40" width="120" height="40" as="geometry" />
        </mxCell>
        <mxCell id="I2Hw5kMmHwBx__Cgq72a-111" value="title" style="rounded=0;whiteSpace=wrap;html=1;fillColor=none;container=0;movable=1;resizable=1;rotatable=1;deletable=1;editable=1;locked=0;connectable=1;" parent="I2Hw5kMmHwBx__Cgq72a-120" vertex="1">
          <mxGeometry x="80" y="80" width="120" height="40" as="geometry" />
        </mxCell>
        <mxCell id="I2Hw5kMmHwBx__Cgq72a-112" value="meeting_date" style="rounded=0;whiteSpace=wrap;html=1;fillColor=none;container=0;movable=1;resizable=1;rotatable=1;deletable=1;editable=1;locked=0;connectable=1;" parent="I2Hw5kMmHwBx__Cgq72a-120" vertex="1">
          <mxGeometry x="80" y="120" width="120" height="40" as="geometry" />
        </mxCell>
        <mxCell id="I2Hw5kMmHwBx__Cgq72a-113" value="status" style="rounded=0;whiteSpace=wrap;html=1;fillColor=none;container=0;movable=1;resizable=1;rotatable=1;deletable=1;editable=1;locked=0;connectable=1;" parent="I2Hw5kMmHwBx__Cgq72a-120" vertex="1">
          <mxGeometry x="80" y="160" width="120" height="40" as="geometry" />
        </mxCell>
        <mxCell id="I2Hw5kMmHwBx__Cgq72a-114" value="PK" style="rounded=0;whiteSpace=wrap;html=1;fillColor=none;container=0;movable=1;resizable=1;rotatable=1;deletable=1;editable=1;locked=0;connectable=1;" parent="I2Hw5kMmHwBx__Cgq72a-120" vertex="1">
          <mxGeometry y="40" width="80" height="40" as="geometry" />
        </mxCell>
        <mxCell id="I2Hw5kMmHwBx__Cgq72a-115" value="" style="rounded=0;whiteSpace=wrap;html=1;fillColor=none;container=0;movable=1;resizable=1;rotatable=1;deletable=1;editable=1;locked=0;connectable=1;" parent="I2Hw5kMmHwBx__Cgq72a-120" vertex="1">
          <mxGeometry y="80" width="80" height="40" as="geometry" />
        </mxCell>
        <mxCell id="I2Hw5kMmHwBx__Cgq72a-116" value="" style="rounded=0;whiteSpace=wrap;html=1;fillColor=none;container=0;movable=1;resizable=1;rotatable=1;deletable=1;editable=1;locked=0;connectable=1;" parent="I2Hw5kMmHwBx__Cgq72a-120" vertex="1">
          <mxGeometry y="120" width="80" height="40" as="geometry" />
        </mxCell>
        <mxCell id="I2Hw5kMmHwBx__Cgq72a-117" value="" style="rounded=0;whiteSpace=wrap;html=1;fillColor=none;container=0;movable=1;resizable=1;rotatable=1;deletable=1;editable=1;locked=0;connectable=1;" parent="I2Hw5kMmHwBx__Cgq72a-120" vertex="1">
          <mxGeometry y="160" width="80" height="40" as="geometry" />
        </mxCell>
        <mxCell id="I2Hw5kMmHwBx__Cgq72a-123" style="edgeStyle=orthogonalEdgeStyle;rounded=0;orthogonalLoop=1;jettySize=auto;html=1;entryX=0;entryY=0.5;entryDx=0;entryDy=0;fontFamily=Helvetica;fontSize=12;fontColor=default;endArrow=ERzeroToOne;endFill=0;startArrow=ERzeroToOne;startFill=0;" parent="1" source="I2Hw5kMmHwBx__Cgq72a-4" target="I2Hw5kMmHwBx__Cgq72a-59" edge="1">
          <mxGeometry relative="1" as="geometry" />
        </mxCell>
        <mxCell id="I2Hw5kMmHwBx__Cgq72a-124" value="in &amp;gt;" style="text;html=1;align=center;verticalAlign=middle;whiteSpace=wrap;rounded=0;fontFamily=Helvetica;fontSize=12;fontColor=default;" parent="1" vertex="1">
          <mxGeometry x="550" y="270" width="60" height="30" as="geometry" />
        </mxCell>
        <mxCell id="I2Hw5kMmHwBx__Cgq72a-125" value="&amp;lt; has" style="text;html=1;align=center;verticalAlign=middle;whiteSpace=wrap;rounded=0;fontFamily=Helvetica;fontSize=12;fontColor=default;" parent="1" vertex="1">
          <mxGeometry x="550" y="300" width="60" height="30" as="geometry" />
        </mxCell>
        <mxCell id="I2Hw5kMmHwBx__Cgq72a-127" value="" style="edgeStyle=orthogonalEdgeStyle;rounded=0;orthogonalLoop=1;jettySize=auto;html=1;fontFamily=Helvetica;fontSize=12;fontColor=default;endArrow=ERzeroToMany;endFill=0;startArrow=ERmandOne;startFill=0;" parent="1" source="I2Hw5kMmHwBx__Cgq72a-9" target="I2Hw5kMmHwBx__Cgq72a-19" edge="1">
          <mxGeometry relative="1" as="geometry">
            <Array as="points">
              <mxPoint x="460" y="540" />
            </Array>
          </mxGeometry>
        </mxCell>
        <mxCell id="I2Hw5kMmHwBx__Cgq72a-128" value="participate in&lt;div&gt;V&lt;/div&gt;" style="text;html=1;align=center;verticalAlign=middle;whiteSpace=wrap;rounded=0;fontFamily=Helvetica;fontSize=12;fontColor=default;" parent="1" vertex="1">
          <mxGeometry x="460" y="480" width="100" height="30" as="geometry" />
        </mxCell>
        <mxCell id="I2Hw5kMmHwBx__Cgq72a-129" value="^&lt;div&gt;has&lt;/div&gt;" style="text;html=1;align=center;verticalAlign=middle;whiteSpace=wrap;rounded=0;fontFamily=Helvetica;fontSize=12;fontColor=default;" parent="1" vertex="1">
          <mxGeometry x="380" y="480" width="100" height="30" as="geometry" />
        </mxCell>
        <mxCell id="I2Hw5kMmHwBx__Cgq72a-130" style="edgeStyle=orthogonalEdgeStyle;rounded=0;orthogonalLoop=1;jettySize=auto;html=1;entryX=0;entryY=0.5;entryDx=0;entryDy=0;fontFamily=Helvetica;fontSize=12;fontColor=default;endArrow=ERmandOne;endFill=0;startArrow=ERzeroToMany;startFill=0;" parent="1" source="I2Hw5kMmHwBx__Cgq72a-40" target="I2Hw5kMmHwBx__Cgq72a-13" edge="1">
          <mxGeometry relative="1" as="geometry" />
        </mxCell>
        <mxCell id="I2Hw5kMmHwBx__Cgq72a-131" value="has &amp;gt;" style="text;html=1;align=center;verticalAlign=middle;whiteSpace=wrap;rounded=0;fontFamily=Helvetica;fontSize=12;fontColor=default;" parent="1" vertex="1">
          <mxGeometry x="230" y="265" width="60" height="30" as="geometry" />
        </mxCell>
        <mxCell id="I2Hw5kMmHwBx__Cgq72a-132" value="&amp;lt; participates" style="text;html=1;align=center;verticalAlign=middle;whiteSpace=wrap;rounded=0;fontFamily=Helvetica;fontSize=12;fontColor=default;" parent="1" vertex="1">
          <mxGeometry x="210" y="310" width="100" height="30" as="geometry" />
        </mxCell>
        <mxCell id="I2Hw5kMmHwBx__Cgq72a-133" value="" style="group" parent="1" vertex="1" connectable="0">
          <mxGeometry x="1320" y="200" width="200" height="280" as="geometry" />
        </mxCell>
        <mxCell id="I2Hw5kMmHwBx__Cgq72a-134" value="quests" style="rounded=0;whiteSpace=wrap;html=1;fillColor=none;container=0;" parent="I2Hw5kMmHwBx__Cgq72a-133" vertex="1">
          <mxGeometry width="200" height="40" as="geometry" />
        </mxCell>
        <mxCell id="I2Hw5kMmHwBx__Cgq72a-135" value="id" style="rounded=0;whiteSpace=wrap;html=1;fillColor=none;container=0;" parent="I2Hw5kMmHwBx__Cgq72a-133" vertex="1">
          <mxGeometry x="80" y="40" width="120" height="40" as="geometry" />
        </mxCell>
        <mxCell id="I2Hw5kMmHwBx__Cgq72a-136" value="title" style="rounded=0;whiteSpace=wrap;html=1;fillColor=none;container=0;" parent="I2Hw5kMmHwBx__Cgq72a-133" vertex="1">
          <mxGeometry x="80" y="80" width="120" height="40" as="geometry" />
        </mxCell>
        <mxCell id="I2Hw5kMmHwBx__Cgq72a-137" value="description" style="rounded=0;whiteSpace=wrap;html=1;fillColor=none;container=0;" parent="I2Hw5kMmHwBx__Cgq72a-133" vertex="1">
          <mxGeometry x="80" y="120" width="120" height="40" as="geometry" />
        </mxCell>
        <mxCell id="I2Hw5kMmHwBx__Cgq72a-138" value="points" style="rounded=0;whiteSpace=wrap;html=1;fillColor=none;container=0;" parent="I2Hw5kMmHwBx__Cgq72a-133" vertex="1">
          <mxGeometry x="80" y="160" width="120" height="40" as="geometry" />
        </mxCell>
        <mxCell id="I2Hw5kMmHwBx__Cgq72a-139" value="PK" style="rounded=0;whiteSpace=wrap;html=1;fillColor=none;container=0;" parent="I2Hw5kMmHwBx__Cgq72a-133" vertex="1">
          <mxGeometry y="40" width="80" height="40" as="geometry" />
        </mxCell>
        <mxCell id="I2Hw5kMmHwBx__Cgq72a-140" value="" style="rounded=0;whiteSpace=wrap;html=1;fillColor=none;container=0;" parent="I2Hw5kMmHwBx__Cgq72a-133" vertex="1">
          <mxGeometry y="80" width="80" height="40" as="geometry" />
        </mxCell>
        <mxCell id="I2Hw5kMmHwBx__Cgq72a-141" value="" style="rounded=0;whiteSpace=wrap;html=1;fillColor=none;container=0;" parent="I2Hw5kMmHwBx__Cgq72a-133" vertex="1">
          <mxGeometry y="120" width="80" height="40" as="geometry" />
        </mxCell>
        <mxCell id="I2Hw5kMmHwBx__Cgq72a-142" value="" style="rounded=0;whiteSpace=wrap;html=1;fillColor=none;container=0;" parent="I2Hw5kMmHwBx__Cgq72a-133" vertex="1">
          <mxGeometry y="160" width="80" height="40" as="geometry" />
        </mxCell>
        <mxCell id="I2Hw5kMmHwBx__Cgq72a-143" value="progress" style="rounded=0;whiteSpace=wrap;html=1;fillColor=none;container=0;" parent="I2Hw5kMmHwBx__Cgq72a-133" vertex="1">
          <mxGeometry x="80" y="200" width="120" height="40" as="geometry" />
        </mxCell>
        <mxCell id="I2Hw5kMmHwBx__Cgq72a-144" value="" style="rounded=0;whiteSpace=wrap;html=1;fillColor=none;container=0;" parent="I2Hw5kMmHwBx__Cgq72a-133" vertex="1">
          <mxGeometry y="200" width="80" height="40" as="geometry" />
        </mxCell>
        <mxCell id="I2Hw5kMmHwBx__Cgq72a-145" value="completed" style="rounded=0;whiteSpace=wrap;html=1;fillColor=none;container=0;" parent="I2Hw5kMmHwBx__Cgq72a-133" vertex="1">
          <mxGeometry x="80" y="240" width="120" height="40" as="geometry" />
        </mxCell>
        <mxCell id="I2Hw5kMmHwBx__Cgq72a-146" value="" style="rounded=0;whiteSpace=wrap;html=1;fillColor=none;container=0;" parent="I2Hw5kMmHwBx__Cgq72a-133" vertex="1">
          <mxGeometry y="240" width="80" height="40" as="geometry" />
        </mxCell>
        <mxCell id="SbIppSOkZ8ag6pkoy6vN-17" style="edgeStyle=orthogonalEdgeStyle;rounded=0;orthogonalLoop=1;jettySize=auto;html=1;endArrow=none;endFill=0;startArrow=ERzeroToMany;startFill=0;" edge="1" parent="1" source="SbIppSOkZ8ag6pkoy6vN-2">
          <mxGeometry relative="1" as="geometry">
            <mxPoint x="460" y="540" as="targetPoint" />
          </mxGeometry>
        </mxCell>
        <mxCell id="SbIppSOkZ8ag6pkoy6vN-19" value="" style="ellipse;whiteSpace=wrap;html=1;" vertex="1" parent="1">
          <mxGeometry x="440" y="520" width="40" height="40" as="geometry" />
        </mxCell>
        <mxCell id="SbIppSOkZ8ag6pkoy6vN-22" style="edgeStyle=orthogonalEdgeStyle;rounded=0;orthogonalLoop=1;jettySize=auto;html=1;entryX=0;entryY=0.5;entryDx=0;entryDy=0;endArrow=ERmandOne;endFill=0;startArrow=ERzeroToMany;startFill=0;" edge="1" parent="1" source="I2Hw5kMmHwBx__Cgq72a-22" target="SbIppSOkZ8ag6pkoy6vN-11">
          <mxGeometry relative="1" as="geometry" />
        </mxCell>
        <mxCell id="I2Hw5kMmHwBx__Cgq72a-19" value="feedback_submissions" style="rounded=0;whiteSpace=wrap;html=1;fillColor=none;" parent="1" vertex="1">
          <mxGeometry x="120" y="520" width="200" height="40" as="geometry" />
        </mxCell>
        <mxCell id="I2Hw5kMmHwBx__Cgq72a-20" value="id" style="rounded=0;whiteSpace=wrap;html=1;fillColor=none;" parent="1" vertex="1">
          <mxGeometry x="200" y="560" width="120" height="40" as="geometry" />
        </mxCell>
        <mxCell id="I2Hw5kMmHwBx__Cgq72a-21" value="user_id" style="rounded=0;whiteSpace=wrap;html=1;fillColor=none;" parent="1" vertex="1">
          <mxGeometry x="200" y="600" width="120" height="40" as="geometry" />
        </mxCell>
        <mxCell id="I2Hw5kMmHwBx__Cgq72a-22" value="subject" style="rounded=0;whiteSpace=wrap;html=1;fillColor=none;" parent="1" vertex="1">
          <mxGeometry x="200" y="640" width="120" height="40" as="geometry" />
        </mxCell>
        <mxCell id="I2Hw5kMmHwBx__Cgq72a-23" value="content" style="rounded=0;whiteSpace=wrap;html=1;fillColor=none;" parent="1" vertex="1">
          <mxGeometry x="200" y="680" width="120" height="40" as="geometry" />
        </mxCell>
        <mxCell id="I2Hw5kMmHwBx__Cgq72a-24" value="created_at" style="rounded=0;whiteSpace=wrap;html=1;fillColor=none;" parent="1" vertex="1">
          <mxGeometry x="200" y="760" width="120" height="40" as="geometry" />
        </mxCell>
        <mxCell id="I2Hw5kMmHwBx__Cgq72a-25" value="updated_at" style="rounded=0;whiteSpace=wrap;html=1;fillColor=none;" parent="1" vertex="1">
          <mxGeometry x="200" y="800" width="120" height="40" as="geometry" />
        </mxCell>
        <mxCell id="I2Hw5kMmHwBx__Cgq72a-26" value="PK" style="rounded=0;whiteSpace=wrap;html=1;fillColor=none;" parent="1" vertex="1">
          <mxGeometry x="120" y="560" width="80" height="40" as="geometry" />
        </mxCell>
        <mxCell id="I2Hw5kMmHwBx__Cgq72a-27" value="FK" style="rounded=0;whiteSpace=wrap;html=1;fillColor=none;" parent="1" vertex="1">
          <mxGeometry x="120" y="600" width="80" height="40" as="geometry" />
        </mxCell>
        <mxCell id="I2Hw5kMmHwBx__Cgq72a-28" value="" style="rounded=0;whiteSpace=wrap;html=1;fillColor=none;" parent="1" vertex="1">
          <mxGeometry x="120" y="640" width="80" height="40" as="geometry" />
        </mxCell>
        <mxCell id="I2Hw5kMmHwBx__Cgq72a-29" value="" style="rounded=0;whiteSpace=wrap;html=1;fillColor=none;" parent="1" vertex="1">
          <mxGeometry x="120" y="680" width="80" height="40" as="geometry" />
        </mxCell>
        <mxCell id="I2Hw5kMmHwBx__Cgq72a-30" value="" style="rounded=0;whiteSpace=wrap;html=1;fillColor=none;" parent="1" vertex="1">
          <mxGeometry x="120" y="800" width="80" height="40" as="geometry" />
        </mxCell>
        <mxCell id="I2Hw5kMmHwBx__Cgq72a-31" value="" style="rounded=0;whiteSpace=wrap;html=1;fillColor=none;" parent="1" vertex="1">
          <mxGeometry x="120" y="760" width="80" height="40" as="geometry" />
        </mxCell>
        <mxCell id="I2Hw5kMmHwBx__Cgq72a-33" value="sentiment" style="rounded=0;whiteSpace=wrap;html=1;fillColor=none;" parent="1" vertex="1">
          <mxGeometry x="200" y="720" width="120" height="40" as="geometry" />
        </mxCell>
        <mxCell id="I2Hw5kMmHwBx__Cgq72a-34" value="" style="rounded=0;whiteSpace=wrap;html=1;fillColor=none;" parent="1" vertex="1">
          <mxGeometry x="120" y="720" width="80" height="40" as="geometry" />
        </mxCell>
        <mxCell id="SbIppSOkZ8ag6pkoy6vN-23" value="feedback_prompt_id" style="rounded=0;whiteSpace=wrap;html=1;fillColor=none;" vertex="1" parent="1">
          <mxGeometry x="200" y="840" width="120" height="40" as="geometry" />
        </mxCell>
        <mxCell id="SbIppSOkZ8ag6pkoy6vN-24" value="FK" style="rounded=0;whiteSpace=wrap;html=1;fillColor=none;" vertex="1" parent="1">
          <mxGeometry x="120" y="840" width="80" height="40" as="geometry" />
        </mxCell>
        <mxCell id="SbIppSOkZ8ag6pkoy6vN-28" value="" style="group" vertex="1" connectable="0" parent="1">
          <mxGeometry x="600" y="520" width="200" height="320" as="geometry" />
        </mxCell>
        <mxCell id="SbIppSOkZ8ag6pkoy6vN-2" value="feedback_prompts" style="rounded=0;whiteSpace=wrap;html=1;fillColor=none;" vertex="1" parent="SbIppSOkZ8ag6pkoy6vN-28">
          <mxGeometry width="200" height="40" as="geometry" />
        </mxCell>
        <mxCell id="SbIppSOkZ8ag6pkoy6vN-3" value="requester_id" style="rounded=0;whiteSpace=wrap;html=1;fillColor=none;" vertex="1" parent="SbIppSOkZ8ag6pkoy6vN-28">
          <mxGeometry x="80" y="40" width="120" height="40" as="geometry" />
        </mxCell>
        <mxCell id="SbIppSOkZ8ag6pkoy6vN-4" value="topic" style="rounded=0;whiteSpace=wrap;html=1;fillColor=none;" vertex="1" parent="SbIppSOkZ8ag6pkoy6vN-28">
          <mxGeometry x="80" y="80" width="120" height="40" as="geometry" />
        </mxCell>
        <mxCell id="SbIppSOkZ8ag6pkoy6vN-5" value="details" style="rounded=0;whiteSpace=wrap;html=1;fillColor=none;" vertex="1" parent="SbIppSOkZ8ag6pkoy6vN-28">
          <mxGeometry x="80" y="120" width="120" height="40" as="geometry" />
        </mxCell>
        <mxCell id="SbIppSOkZ8ag6pkoy6vN-6" value="status" style="rounded=0;whiteSpace=wrap;html=1;fillColor=none;" vertex="1" parent="SbIppSOkZ8ag6pkoy6vN-28">
          <mxGeometry x="80" y="160" width="120" height="40" as="geometry" />
        </mxCell>
        <mxCell id="SbIppSOkZ8ag6pkoy6vN-7" value="created_at" style="rounded=0;whiteSpace=wrap;html=1;fillColor=none;" vertex="1" parent="SbIppSOkZ8ag6pkoy6vN-28">
          <mxGeometry x="80" y="200" width="120" height="40" as="geometry" />
        </mxCell>
        <mxCell id="SbIppSOkZ8ag6pkoy6vN-8" value="updated_at" style="rounded=0;whiteSpace=wrap;html=1;fillColor=none;" vertex="1" parent="SbIppSOkZ8ag6pkoy6vN-28">
          <mxGeometry x="80" y="240" width="120" height="40" as="geometry" />
        </mxCell>
        <mxCell id="SbIppSOkZ8ag6pkoy6vN-9" value="FK" style="rounded=0;whiteSpace=wrap;html=1;fillColor=none;" vertex="1" parent="SbIppSOkZ8ag6pkoy6vN-28">
          <mxGeometry y="40" width="80" height="40" as="geometry" />
        </mxCell>
        <mxCell id="SbIppSOkZ8ag6pkoy6vN-10" value="" style="rounded=0;whiteSpace=wrap;html=1;fillColor=none;" vertex="1" parent="SbIppSOkZ8ag6pkoy6vN-28">
          <mxGeometry y="80" width="80" height="40" as="geometry" />
        </mxCell>
        <mxCell id="SbIppSOkZ8ag6pkoy6vN-11" value="" style="rounded=0;whiteSpace=wrap;html=1;fillColor=none;" vertex="1" parent="SbIppSOkZ8ag6pkoy6vN-28">
          <mxGeometry y="120" width="80" height="40" as="geometry" />
        </mxCell>
        <mxCell id="SbIppSOkZ8ag6pkoy6vN-12" value="" style="rounded=0;whiteSpace=wrap;html=1;fillColor=none;" vertex="1" parent="SbIppSOkZ8ag6pkoy6vN-28">
          <mxGeometry y="160" width="80" height="40" as="geometry" />
        </mxCell>
        <mxCell id="SbIppSOkZ8ag6pkoy6vN-13" value="" style="rounded=0;whiteSpace=wrap;html=1;fillColor=none;" vertex="1" parent="SbIppSOkZ8ag6pkoy6vN-28">
          <mxGeometry y="240" width="80" height="40" as="geometry" />
        </mxCell>
        <mxCell id="SbIppSOkZ8ag6pkoy6vN-14" value="" style="rounded=0;whiteSpace=wrap;html=1;fillColor=none;" vertex="1" parent="SbIppSOkZ8ag6pkoy6vN-28">
          <mxGeometry y="200" width="80" height="40" as="geometry" />
        </mxCell>
        <mxCell id="SbIppSOkZ8ag6pkoy6vN-26" value="id" style="rounded=0;whiteSpace=wrap;html=1;fillColor=none;" vertex="1" parent="SbIppSOkZ8ag6pkoy6vN-28">
          <mxGeometry x="80" y="280" width="120" height="40" as="geometry" />
        </mxCell>
        <mxCell id="SbIppSOkZ8ag6pkoy6vN-27" value="PK" style="rounded=0;whiteSpace=wrap;html=1;fillColor=none;" vertex="1" parent="SbIppSOkZ8ag6pkoy6vN-28">
          <mxGeometry y="280" width="80" height="40" as="geometry" />
        </mxCell>
      </root>
    </mxGraphModel>
  </diagram>
</mxfile>
